# xmcd
#
# Track frame offsets:
#	150
#	12575
#	24673
#	37230
#	47793
#	59485
#	70845
#	85570
#	96600
#	107693
#	117505
#	130238
#	141775
#	153085
#	163798
#	173528
#	183728
#	194933
#	207913
#	228968
#	246613
#	258025
#	272440
#	285813
#	294878
#	308295
#	318883
#
# Disc length: 4441 seconds
# Revision: 3
# Processed by: cddbd v1.5.2PL0 Copyright (c) Steve Scherf et al.
# Submitted via: dBpowerAMP V12.0
#
DISCID=8211571b
DTITLE=Marty Robbins - The Essential Marty Robbins: 1951–1982, Disc 1
DYEAR=1991
DGENRE=Country
TTITLE0=Tomorrow You’ll Be Gone
TTITLE1=I’ll Go on Alone
TTITLE2=I Couldn’t Keep From Crying
TTITLE3=Pain and Misery
TTITLE4=That’s All Right
TTITLE5=Maybellene
TTITLE6=Tennessee Toddy
TTITLE7=I Can’t Quit
TTITLE8=Singing the Blues
TTITLE9=Knee Deep in the Blues
TTITLE10=Mister Teardrop
TTITLE11=The Story of My Life
TTITLE12=A White Sport Coat (And a Pink Carnation)
TTITLE13=She Was Only Seventeen (He Was One Year More)
TTITLE14=Just Married
TTITLE15=Ain’t I the Lucky One
TTITLE16=Kaw-Liga
TTITLE17=The Hanging Tree
TTITLE18=El Paso
TTITLE19=Big Iron
TTITLE20=Song of the Bandit
TTITLE21=Cool Water
TTITLE22=A Little Sentimental
TTITLE23=September in the Rain
TTITLE24=All the Way
TTITLE25=Unchained Melody
TTITLE26=Don’t Worry
EXTD=
EXTT0=
EXTT1=
EXTT2=
EXTT3=
EXTT4=
EXTT5=
EXTT6=
EXTT7=
EXTT8=
EXTT9=
EXTT10=
EXTT11=
EXTT12=
EXTT13=
EXTT14=
EXTT15=
EXTT16=
EXTT17=
EXTT18=
EXTT19=
EXTT20=
EXTT21=
EXTT22=
EXTT23=
EXTT24=
EXTT25=
EXTT26=
PLAYORDER=
